<svg xmlns="http://www.w3.org/2000/svg" viewBox="0 0 240 80" fill="none">
  <rect width="240" height="80" fill="#B70C00"></rect>
  
  <g transform="translate(4, 8)">
    <path d="M20 4 C20 4 28 8 28 24 C28 32 24 40 20 44 C16 40 12 32 12 24 C12 8 20 4 20 4Z" fill="#FFFFFF"></path>
    <path d="M12 32 L6 42 L12 38 Z" fill="#FFFFFF"></path>
    <path d="M28 32 L34 42 L28 38 Z" fill="#FFFFFF"></path>
    <circle cx="20" cy="22" r="4" fill="#B70C00"></circle>
    <path d="M16 44 C16 44 14 50 20 54 C26 50 24 44 24 44 Z" fill="rgba(255,255,255,0.5)"></path>
  </g>
  <text x="48" y="32" font-family="&#39;Oswald&#39;, &#39;Impact&#39;, sans-serif" font-weight="700" font-size="22" fill="#FFFFFF" letter-spacing="1">CONSULT</text>
  <text x="48" y="56" font-family="&#39;Oswald&#39;, &#39;Impact&#39;, sans-serif" font-weight="700" font-size="22" fill="#FFFFFF" letter-spacing="1">DELIVERY</text>
  <text x="48" y="68" font-family="&#39;Montserrat&#39;, Arial, sans-serif" font-weight="500" font-size="8" fill="rgba(255,255,255,0.7)" letter-spacing="1.5">CONSULTORIA PARA DELIVERY</text>
</svg>